<mxfile host="d532e7d0-e012-4b87-bdc0-170273400e0d" modified="2020-12-11T12:44:08.902Z" agent="5.0 (Macintosh; Intel Mac OS X 10_16_0) AppleWebKit/537.36 (KHTML, like Gecko) Code/1.51.1 Chrome/83.0.4103.122 Electron/9.3.3 Safari/537.36" etag="gd55JPVqCLrqn2rn-6qN" version="13.10.0" type="embed"><diagram id="ciYIqVOQ4NWbVblT3kqh" name="Page-1"><mxGraphModel dx="1138" dy="440" grid="1" gridSize="10" guides="1" tooltips="1" connect="1" arrows="1" fold="1" page="1" pageScale="1" pageWidth="827" pageHeight="1169" math="0" shadow="0"><root><mxCell id="0"/><mxCell id="1" parent="0"/><mxCell id="18" value="Patients" style="swimlane;fontStyle=1;align=center;verticalAlign=top;childLayout=stackLayout;horizontal=1;startSize=26;horizontalStack=0;resizeParent=1;resizeParentMax=0;resizeLast=0;collapsible=1;marginBottom=0;" parent="1" vertex="1"><mxGeometry x="140" y="160" width="170" height="240" as="geometry"><mxRectangle x="30" y="50" width="80" height="26" as="alternateBounds"/></mxGeometry></mxCell><mxCell id="19" value="attributes: type&#10;- registration_status: bool&#10;- login_status: bool&#10;- patient_id: int" style="text;strokeColor=none;fillColor=none;align=left;verticalAlign=top;spacingLeft=4;spacingRight=4;overflow=hidden;rotatable=0;points=[[0,0.5],[1,0.5]];portConstraint=eastwest;" parent="18" vertex="1"><mxGeometry y="26" width="170" height="74" as="geometry"/></mxCell><mxCell id="20" value="" style="line;strokeWidth=1;fillColor=none;align=left;verticalAlign=middle;spacingTop=-1;spacingLeft=3;spacingRight=3;rotatable=0;labelPosition=right;points=[];portConstraint=eastwest;" parent="18" vertex="1"><mxGeometry y="100" width="170" height="10" as="geometry"/></mxCell><mxCell id="21" value="methods: return type&#10;- _init_()&#10;- register(): bool&#10;- log_in(): bool&#10;- select_options(): int&#10;- request_appointment(): bool&#10;- view_appointment(): &#10;- cancel_appointment(): bool" style="text;strokeColor=none;fillColor=none;align=left;verticalAlign=top;spacingLeft=4;spacingRight=4;overflow=hidden;rotatable=0;points=[[0,0.5],[1,0.5]];portConstraint=eastwest;" parent="18" vertex="1"><mxGeometry y="110" width="170" height="130" as="geometry"/></mxCell><mxCell id="22" value="GP" style="swimlane;fontStyle=1;align=center;verticalAlign=top;childLayout=stackLayout;horizontal=1;startSize=26;horizontalStack=0;resizeParent=1;resizeParentMax=0;resizeLast=0;collapsible=1;marginBottom=0;" parent="1" vertex="1"><mxGeometry x="340" y="160" width="160" height="240" as="geometry"/></mxCell><mxCell id="23" value="attributes: type&#10;- login_status: bool&#10;- account_status: bool&#10;- gp_id: int" style="text;strokeColor=none;fillColor=none;align=left;verticalAlign=top;spacingLeft=4;spacingRight=4;overflow=hidden;rotatable=0;points=[[0,0.5],[1,0.5]];portConstraint=eastwest;" parent="22" vertex="1"><mxGeometry y="26" width="160" height="74" as="geometry"/></mxCell><mxCell id="24" value="" style="line;strokeWidth=1;fillColor=none;align=left;verticalAlign=middle;spacingTop=-1;spacingLeft=3;spacingRight=3;rotatable=0;labelPosition=right;points=[];portConstraint=eastwest;" parent="22" vertex="1"><mxGeometry y="100" width="160" height="8" as="geometry"/></mxCell><mxCell id="25" value="methods: return type&#10;- _init_()&#10;- log_in(): bool&#10;- select_options(): int&#10;- add_availability(): bool&#10;- manage_request(): bool&#10;- view_confirmed_apt(): &#10;! input_prescription():" style="text;strokeColor=none;fillColor=none;align=left;verticalAlign=top;spacingLeft=4;spacingRight=4;overflow=hidden;rotatable=0;points=[[0,0.5],[1,0.5]];portConstraint=eastwest;" parent="22" vertex="1"><mxGeometry y="108" width="160" height="132" as="geometry"/></mxCell><mxCell id="26" value="Admin" style="swimlane;fontStyle=1;align=center;verticalAlign=top;childLayout=stackLayout;horizontal=1;startSize=26;horizontalStack=0;resizeParent=1;resizeParentMax=0;resizeLast=0;collapsible=1;marginBottom=0;" parent="1" vertex="1"><mxGeometry x="535" y="160" width="160" height="240" as="geometry"/></mxCell><mxCell id="27" value="attributes: type&#10;- login_status: bool&#10;- admin_id: int" style="text;strokeColor=none;fillColor=none;align=left;verticalAlign=top;spacingLeft=4;spacingRight=4;overflow=hidden;rotatable=0;points=[[0,0.5],[1,0.5]];portConstraint=eastwest;" parent="26" vertex="1"><mxGeometry y="26" width="160" height="74" as="geometry"/></mxCell><mxCell id="28" value="" style="line;strokeWidth=1;fillColor=none;align=left;verticalAlign=middle;spacingTop=-1;spacingLeft=3;spacingRight=3;rotatable=0;labelPosition=right;points=[];portConstraint=eastwest;" parent="26" vertex="1"><mxGeometry y="100" width="160" height="8" as="geometry"/></mxCell><mxCell id="29" value="methods: return type&#10;- _init_()&#10;- log_in(): bool&#10;- select_options(): int&#10;- confirm_registration(): bool&#10;- add_gp(): bool&#10;- manage_gp(): bool&#10;! manage_records():" style="text;strokeColor=none;fillColor=none;align=left;verticalAlign=top;spacingLeft=4;spacingRight=4;overflow=hidden;rotatable=0;points=[[0,0.5],[1,0.5]];portConstraint=eastwest;" parent="26" vertex="1"><mxGeometry y="108" width="160" height="132" as="geometry"/></mxCell><mxCell id="30" value="Panel" style="swimlane;fontStyle=1;align=center;verticalAlign=top;childLayout=stackLayout;horizontal=1;startSize=26;horizontalStack=0;resizeParent=1;resizeParentMax=0;resizeLast=0;collapsible=1;marginBottom=0;" parent="1" vertex="1"><mxGeometry x="140" y="420" width="170" height="230" as="geometry"/></mxCell><mxCell id="31" value="attributes: type&#10;- user_type: str&#10;- user_id: int" style="text;strokeColor=none;fillColor=none;align=left;verticalAlign=top;spacingLeft=4;spacingRight=4;overflow=hidden;rotatable=0;points=[[0,0.5],[1,0.5]];portConstraint=eastwest;" parent="30" vertex="1"><mxGeometry y="26" width="170" height="74" as="geometry"/></mxCell><mxCell id="32" value="" style="line;strokeWidth=1;fillColor=none;align=left;verticalAlign=middle;spacingTop=-1;spacingLeft=3;spacingRight=3;rotatable=0;labelPosition=right;points=[];portConstraint=eastwest;" parent="30" vertex="1"><mxGeometry y="100" width="170" height="8" as="geometry"/></mxCell><mxCell id="33" value="methods: return type&#10;- _init_()&#10;- welcome(): bool&#10;- homepage_options(): int" style="text;strokeColor=none;fillColor=none;align=left;verticalAlign=top;spacingLeft=4;spacingRight=4;overflow=hidden;rotatable=0;points=[[0,0.5],[1,0.5]];portConstraint=eastwest;" parent="30" vertex="1"><mxGeometry y="108" width="170" height="122" as="geometry"/></mxCell><mxCell id="35" value="Class Diagram" style="text;html=1;strokeColor=none;fillColor=none;align=left;verticalAlign=middle;whiteSpace=wrap;rounded=0;fontSize=50;" parent="1" vertex="1"><mxGeometry x="140" y="80" width="340" height="20" as="geometry"/></mxCell><mxCell id="36" value="Database" style="swimlane;fontStyle=1;align=center;verticalAlign=top;childLayout=stackLayout;horizontal=1;startSize=26;horizontalStack=0;resizeParent=1;resizeParentMax=0;resizeLast=0;collapsible=1;marginBottom=0;" parent="1" vertex="1"><mxGeometry x="340" y="420" width="160" height="230" as="geometry"><mxRectangle x="230" y="310" width="90" height="26" as="alternateBounds"/></mxGeometry></mxCell><mxCell id="37" value="attributes: type&#10;- connection: object&#10;- c: object" style="text;strokeColor=none;fillColor=none;align=left;verticalAlign=top;spacingLeft=4;spacingRight=4;overflow=hidden;rotatable=0;points=[[0,0.5],[1,0.5]];portConstraint=eastwest;" parent="36" vertex="1"><mxGeometry y="26" width="160" height="74" as="geometry"/></mxCell><mxCell id="38" value="" style="line;strokeWidth=1;fillColor=none;align=left;verticalAlign=middle;spacingTop=-1;spacingLeft=3;spacingRight=3;rotatable=0;labelPosition=right;points=[];portConstraint=eastwest;" parent="36" vertex="1"><mxGeometry y="100" width="160" height="8" as="geometry"/></mxCell><mxCell id="39" value="methods: return type&#10;- _init_()&#10;- exec(): bool&#10;- exect_one(): bool&#10;- exect_many(): bool" style="text;strokeColor=none;fillColor=none;align=left;verticalAlign=top;spacingLeft=4;spacingRight=4;overflow=hidden;rotatable=0;points=[[0,0.5],[1,0.5]];portConstraint=eastwest;" parent="36" vertex="1"><mxGeometry y="108" width="160" height="122" as="geometry"/></mxCell><mxCell id="63" value="Patients" style="rounded=0;whiteSpace=wrap;html=1;align=center;fontSize=18;" parent="1" vertex="1"><mxGeometry x="369" y="800" width="110" height="40" as="geometry"/></mxCell><mxCell id="64" value="GP" style="rounded=0;whiteSpace=wrap;html=1;align=center;fontSize=18;" parent="1" vertex="1"><mxGeometry x="369" y="894" width="110" height="40" as="geometry"/></mxCell><mxCell id="65" value="Admin" style="rounded=0;whiteSpace=wrap;html=1;align=center;fontSize=18;" parent="1" vertex="1"><mxGeometry x="369" y="990" width="110" height="40" as="geometry"/></mxCell><mxCell id="66" value="Panel" style="rounded=0;whiteSpace=wrap;html=1;align=center;fontSize=18;" parent="1" vertex="1"><mxGeometry x="99" y="894" width="110" height="40" as="geometry"/></mxCell><mxCell id="67" value="Database" style="rounded=0;whiteSpace=wrap;html=1;align=center;fontSize=18;" parent="1" vertex="1"><mxGeometry x="618" y="894" width="110" height="40" as="geometry"/></mxCell><mxCell id="68" value="Conceptual Model" style="text;html=1;strokeColor=none;fillColor=none;align=left;verticalAlign=middle;whiteSpace=wrap;rounded=0;fontSize=50;" parent="1" vertex="1"><mxGeometry x="130" y="730" width="590" height="20" as="geometry"/></mxCell><mxCell id="69" value="" style="endArrow=classic;html=1;fontSize=50;exitX=1;exitY=0.5;exitDx=0;exitDy=0;entryX=0;entryY=0;entryDx=0;entryDy=0;startArrow=classic;startFill=1;" parent="1" source="63" target="67" edge="1"><mxGeometry width="50" height="50" relative="1" as="geometry"><mxPoint x="300" y="880" as="sourcePoint"/><mxPoint x="430" y="880" as="targetPoint"/></mxGeometry></mxCell><mxCell id="70" value="" style="endArrow=classic;html=1;fontSize=50;exitX=1;exitY=0.5;exitDx=0;exitDy=0;entryX=0;entryY=1;entryDx=0;entryDy=0;startArrow=classic;startFill=1;" parent="1" source="65" target="67" edge="1"><mxGeometry width="50" height="50" relative="1" as="geometry"><mxPoint x="489" y="830" as="sourcePoint"/><mxPoint x="628" y="904" as="targetPoint"/></mxGeometry></mxCell><mxCell id="71" value="" style="endArrow=classic;html=1;fontSize=50;exitX=1;exitY=0.5;exitDx=0;exitDy=0;startArrow=classic;startFill=1;" parent="1" source="64" edge="1"><mxGeometry width="50" height="50" relative="1" as="geometry"><mxPoint x="499" y="840" as="sourcePoint"/><mxPoint x="620" y="914" as="targetPoint"/></mxGeometry></mxCell><mxCell id="73" value="" style="endArrow=classic;html=1;fontSize=50;exitX=0;exitY=0.5;exitDx=0;exitDy=0;entryX=1;entryY=0;entryDx=0;entryDy=0;startArrow=classic;startFill=1;" parent="1" source="63" target="66" edge="1"><mxGeometry width="50" height="50" relative="1" as="geometry"><mxPoint x="489" y="830" as="sourcePoint"/><mxPoint x="628" y="904" as="targetPoint"/></mxGeometry></mxCell><mxCell id="74" value="" style="endArrow=classic;html=1;fontSize=50;entryX=0;entryY=0.5;entryDx=0;entryDy=0;startArrow=classic;startFill=1;exitX=1;exitY=0.5;exitDx=0;exitDy=0;" parent="1" source="66" target="64" edge="1"><mxGeometry width="50" height="50" relative="1" as="geometry"><mxPoint x="210" y="960" as="sourcePoint"/><mxPoint x="638" y="914" as="targetPoint"/></mxGeometry></mxCell><mxCell id="76" value="" style="endArrow=classic;html=1;fontSize=50;exitX=1;exitY=1;exitDx=0;exitDy=0;entryX=0;entryY=0.5;entryDx=0;entryDy=0;startArrow=classic;startFill=1;" parent="1" source="66" target="65" edge="1"><mxGeometry width="50" height="50" relative="1" as="geometry"><mxPoint x="509" y="850" as="sourcePoint"/><mxPoint x="648" y="924" as="targetPoint"/></mxGeometry></mxCell></root></mxGraphModel></diagram></mxfile>